<svg width="56" height="56" viewBox="0 0 56 56" fill="none" xmlns="http://www.w3.org/2000/svg">
<rect width="56" height="56" rx="6" fill="#FFDB45"/>
<path d="M31.1111 34.2222C31.1111 36.9756 29.9133 39.4644 28 41.16C26.3511 42.6533 24.1733 43.5556 21.7778 43.5556C16.6289 43.5556 12.4444 39.3711 12.4444 34.2222C12.4444 30.9585 14.1381 28.0803 16.6834 26.4169C16.9374 26.2509 17.273 26.3697 17.3993 26.6455C18.8325 29.7742 21.604 32.1254 24.92 33.0244C25.9 33.3045 26.9267 33.4445 28 33.4445C28.8648 33.4445 29.688 33.3509 30.4866 33.1807C30.7736 33.1196 31.0602 33.3047 31.0848 33.597C31.1023 33.8051 31.1111 34.0159 31.1111 34.2222Z" fill="#1E1E1E"/>
<path d="M37.3333 21.7778C37.3333 22.9911 37.1 24.1578 36.68 25.2156C35.6067 27.9222 33.3044 30.0067 30.4578 30.7845C29.68 31.0022 28.8556 31.1111 28 31.1111C27.1444 31.1111 26.32 31.0022 25.5422 30.7845C22.6956 30.0067 20.3933 27.9222 19.32 25.2156C18.9 24.1578 18.6667 22.9911 18.6667 21.7778C18.6667 16.6289 22.8511 12.4445 28 12.4445C33.1489 12.4445 37.3333 16.6289 37.3333 21.7778Z" fill="#1E1E1E"/>
<path d="M43.5556 34.2222C43.5556 39.3711 39.3711 43.5556 34.2222 43.5556C32.9282 43.5556 31.6891 43.292 30.5695 42.8109C30.2563 42.6764 30.1974 42.2687 30.4279 42.0175C32.3649 39.906 33.4444 37.1308 33.4444 34.2222C33.4444 33.6933 33.3978 33.1645 33.32 32.6667L33.3007 32.547C33.2659 32.3313 33.3758 32.1189 33.5681 32.015C35.7689 30.8264 37.5487 28.9493 38.601 26.6464C38.7272 26.3702 39.063 26.2511 39.3172 26.4173C41.8621 28.0808 43.5556 30.9588 43.5556 34.2222Z" fill="#1E1E1E"/>
</svg>
